<svg version="1.1" id="Шар_1" xmlns="http://www.w3.org/2000/svg" xmlns:xlink="http://www.w3.org/1999/xlink" x="0px" y="0px"
	 viewBox="0 0 512 512" style="enable-background:new 0 0 512 512;" xml:space="preserve">
    <style type="text/css">
        .st0{fill-rule:evenodd;clip-rule:evenodd;fill:none;}
        .st1{fill-rule:evenodd;clip-rule:evenodd;fill:#00ECF0;}
        .st2{fill-rule:evenodd;clip-rule:evenodd;fill:#00D4D8;}
        .st3{fill-rule:evenodd;clip-rule:evenodd;fill:#00BDC0;}
        .st4{fill-rule:evenodd;clip-rule:evenodd;fill:#00A5A8;}
        .st5{fill-rule:evenodd;clip-rule:evenodd;fill:#008E90;}
        .st6{fill-rule:evenodd;clip-rule:evenodd;fill:#007678;}
        .st7{fill-rule:evenodd;clip-rule:evenodd;fill:#005E60;}
        .st8{fill-rule:evenodd;clip-rule:evenodd;fill:#004748;}
        .st9{fill-rule:evenodd;clip-rule:evenodd;fill:#002F30;}
        .st10{fill-rule:evenodd;clip-rule:evenodd;fill:#001818;}
        .st11{fill-rule:evenodd;clip-rule:evenodd;}
    </style>
    <g>
        <path class="st0" d="M269.5,9.3c126.7,0,229.3,103.5,229.3,231.2c0,127.7-102.7,231.2-229.3,231.2
            c-126.7,0-229.3-103.5-229.3-231.2C40.1,112.8,142.8,9.3,269.5,9.3L269.5,9.3z"/>
        <path class="st1" d="M119.3,16.1c27.2,0,49.3,22.3,49.3,49.7c0,27.4-22.1,49.7-49.3,49.7C92.1,115.5,70,93.3,70,65.8
            C70,38.4,92.1,16.1,119.3,16.1L119.3,16.1z"/>
        <g>
            <path class="st2" d="M47.5,136.3c25.1,0,45.5,20.5,45.5,45.9c0,25.3-20.4,45.9-45.5,45.9C22.4,228.1,2,207.5,2,182.2
                C2,156.8,22.4,136.3,47.5,136.3L47.5,136.3z"/>
            <path class="st3" d="M48.6,260.7c23,0,41.7,18.8,41.7,42.1c0,23.2-18.7,42.1-41.7,42.1c-23,0-41.7-18.8-41.7-42.1
                C6.9,279.5,25.6,260.7,48.6,260.7L48.6,260.7z"/>
            <path class="st4" d="M100.5,358.6c21,0,37.9,17.1,37.9,38.3c0,21.1-17,38.3-37.9,38.3c-21,0-38-17.1-38-38.3
                C62.5,375.7,79.5,358.6,100.5,358.6L100.5,358.6z"/>
            <path class="st5" d="M179.1,418.6c18.9,0,34.2,15.4,34.2,34.5c0,19-15.3,34.4-34.2,34.4c-18.9,0-34.2-15.4-34.2-34.4
                C144.9,434,160.2,418.6,179.1,418.6L179.1,418.6z"/>
            <path class="st6" d="M265,441c16.8,0,30.4,13.7,30.4,30.6c0,16.9-13.6,30.6-30.4,30.6c-16.8,0-30.4-13.7-30.4-30.6
                C234.6,454.7,248.2,441,265,441L265,441z"/>
            <path class="st7" d="M344.6,432.2c14.7,0,26.6,12,26.6,26.8c0,14.8-11.9,26.8-26.6,26.8c-14.7,0-26.6-12-26.6-26.8
                C318,444.2,330,432.2,344.6,432.2L344.6,432.2z"/>
            <path class="st8" d="M410.2,400.1c12.6,0,22.8,10.3,22.8,23c0,12.7-10.2,23-22.8,23c-12.6,0-22.8-10.3-22.8-23
                C387.3,410.4,397.6,400.1,410.2,400.1L410.2,400.1z"/>
            <path class="st9" d="M457.9,353.1c10.5,0,19,8.6,19,19.2c0,10.6-8.5,19.2-19,19.2s-19-8.6-19-19.2
                C438.8,361.7,447.3,353.1,457.9,353.1L457.9,353.1z"/>
            <path class="st10" d="M486.9,298.6c8.4,0,15.3,6.9,15.3,15.4c0,8.5-6.8,15.4-15.3,15.4c-8.4,0-15.3-6.9-15.3-15.4
                C471.7,305.4,478.5,298.6,486.9,298.6L486.9,298.6z"/>
        </g>
        <path class="st11" d="M498.4,242.2c6.3,0,11.5,5.2,11.5,11.6c0,6.4-5.1,11.6-11.5,11.6c-6.3,0-11.5-5.2-11.5-11.6
            C486.9,247.4,492.1,242.2,498.4,242.2L498.4,242.2z"/>
    </g>
</svg>
