<?xml version="1.0" encoding="utf-8"?>
<!-- Generator: Adobe Illustrator 24.0.0, SVG Export Plug-In . SVG Version: 6.00 Build 0)  -->
<svg version="1.1" id="Шар_1" xmlns="http://www.w3.org/2000/svg" xmlns:xlink="http://www.w3.org/1999/xlink" x="0px" y="0px"
	 viewBox="0 0 24 16" style="enable-background:new 0 0 24 16;" xml:space="preserve">
<style type="text/css">
	.st0{fill-rule:evenodd;clip-rule:evenodd;fill:#424242;}
	.st1{fill-rule:evenodd;clip-rule:evenodd;}
	.st2{fill-rule:evenodd;clip-rule:evenodd;fill:#F9F9F9;}
</style>
<path class="st0" d="M1.1,7.8c0,0,4.6-7,10.7-6.2s10,3.8,11.2,6.2c1.2,2.4-8.5,7.4-10.8,6.8C9.8,13.9,4.5,14.3,1.1,7.8z"/>
<path class="st1" d="M12,0.9c4.6,0,8.9,2.3,11.4,6.2c0.3,0.5,0.3,1.2,0,1.7c-2.5,3.9-6.7,6.2-11.4,6.2c-4.6,0-8.9-2.3-11.4-6.2
	c-0.3-0.5-0.3-1.2,0-1.7C3.1,3.3,7.4,0.9,12,0.9z M12,13.9c4.2,0,8.1-2.1,10.3-5.6c0.1-0.1,0.1-0.3,0-0.4C20.1,4.3,16.2,2.1,12,2.1
	c-4.2,0-8.1,2.1-10.3,5.6c-0.1,0.1-0.1,0.3,0,0.4C3.9,11.7,7.8,13.9,12,13.9z M12,4.4C10,4.4,8.4,6,8.4,8c0,2,1.6,3.6,3.6,3.6
	S15.6,10,15.6,8C15.6,6,14,4.4,12,4.4z M9.6,8c0,1.3,1.1,2.4,2.4,2.4s2.4-1.1,2.4-2.4c0-1.3-1.1-2.4-2.4-2.4S9.6,6.7,9.6,8z"/>
<ellipse transform="matrix(0.9905 -0.1378 0.1378 0.9905 -0.9958 1.7307)" class="st1" cx="12" cy="8.1" rx="3.6" ry="3.6"/>
<ellipse transform="matrix(0.9953 -9.665973e-02 9.665973e-02 0.9953 -0.7225 1.1976)" class="st2" cx="12" cy="8.1" rx="2.4" ry="2.4"/>
</svg>
